<?xml version="1.0" encoding="utf-8"?>
<!-- Uploaded to: SVG Repo, www.svgrepo.com, Generator: SVG Repo Mixer Tools -->
<svg fill="#000000" height="800px" width="800px" version="1.1" id="_x31_" xmlns="http://www.w3.org/2000/svg" xmlns:xlink="http://www.w3.org/1999/xlink" 
	 viewBox="0 0 128 128" xml:space="preserve">
<g>
	<circle cx="46.1" cy="64.8" r="31.4"/>
	<path d="M65.9,94.4c-1.4,0.9-2.9,1.8-4.4,2.5c-4.7,2.2-9.9,3.5-15.4,3.5c-19.7,0-35.6-16-35.6-35.6c0-8.2,2.8-15.8,7.5-21.8
		l3.4-3.8l-1.9-2.4l-4.9-6L10.7,34l5.3,6.6c-5.3,6.6-8.5,15-8.5,24.2c0,20.2,15.6,36.8,35.4,38.5v11.2H30.2v6.4H63v-6.4H49.9v-11.2
		c4.8-0.5,9.4-1.8,13.6-3.9l6.4,7.9l3.9-3.2l-5.9-7.3L65.9,94.4z"/>
</g>
<path id="_x30__1_" d="M117.4,27.4h-5.7c-0.4-2.9-1.4-5.1-3-7.3l4.1-4.1c0.7-0.7,0.7-1.9,0-2.6c-0.7-0.7-1.9-0.7-2.6,0l-4.1,4.3
	c-2-1.7-4.4-2.6-7.3-3V9c0-1.1-0.7-1.9-1.9-1.9S95.2,7.9,95.2,9v5.7c-2.9,0.4-5.1,1.4-7.3,3l-4.1-4.1c-0.7-0.7-1.9-0.7-2.6,0
	c-0.7,0.7-0.7,1.9,0,2.6l4.1,4.1c-1.7,2-2.6,4.4-3,7.3h-5.7c-1.1,0-1.9,0.7-1.9,1.9c0,1.1,0.7,1.9,1.9,1.9h5.7
	c0.4,2.9,1.4,5.1,3,7.3l-4.1,4.1c-0.7,0.7-0.7,1.9,0,2.6c0.4,0.4,1,0.6,1.3,0.6s1-0.1,1.3-0.6l4.1-4.1c2,1.7,4.4,2.6,7.3,3v5.7
	c0,1.1,0.7,1.9,1.9,1.9s1.9-0.7,1.9-1.9v-5.7c2.9-0.4,5.1-1.4,7.3-3l4.1,4.1c0.4,0.4,1,0.6,1.3,0.6c0.4,0,1-0.1,1.3-0.6
	c0.7-0.7,0.7-1.9,0-2.6l-4.1-4.1c1.7-2,2.6-4.4,3-7.3h5.7c1.1,0,1.9-0.7,1.9-1.9C119.3,28.3,118.6,27.4,117.4,27.4z M97,18.2
	c6.1,0,11.1,5,11.1,11.1s-5,11.1-11.1,11.1s-11.1-5-11.1-11.1S90.9,18.2,97,18.2z"/>
</svg>