<?xml version="1.0" encoding="utf-8"?>
<!-- Uploaded to: SVG Repo, www.svgrepo.com, Generator: SVG Repo Mixer Tools -->
<svg fill="#000000" version="1.1" id="Layer_1" xmlns="http://www.w3.org/2000/svg" xmlns:xlink="http://www.w3.org/1999/xlink" 
	 width="800px" height="800px" viewBox="0 0 256 173" enable-background="new 0 0 256 173" xml:space="preserve">
<path d="M128.253,56.864c15.186,0,27.432-12.247,27.432-27.432S143.536,2,128.253,2
	c-15.186,0-27.432,12.247-27.432,27.432C100.918,44.716,113.165,56.864,128.253,56.864z M64.571,136.32h-49.28
	c-15.969,0-16.851-24.395,0.294-24.395H58.3l24.493-36.054c7.25-9.895,15.48-14.598,27.138-14.598h36.544
	c11.659,0,19.888,4.311,27.138,14.598l24.591,36.054h43.01c17.243,0,16.165,24.395,0.588,24.395h-49.28
	c-3.919,0-8.622-1.372-11.365-5.584l-18.811-26.844l-0.098,67.209H94.844l-0.098-67.209l-18.811,26.844
	C73.192,134.85,68.49,136.32,64.571,136.32z"/>
<path d="M235.742,85.675c1.081-0.4,2.163,0.376,2.092,1.457l-0.306,4.584c-0.188,2.351-4.772,6.017-12.552,6.017
	c-8.015,0-12.364-3.667-12.552-6.017l-0.306-4.537c-0.094-1.105,1.011-1.857,2.045-1.457c0.047,0,0.047,0,0.047,0
	c0.564,0.188,0.87,0.682,0.917,1.222l0.047,0.494c0.235,2.492,4.49,4.349,9.825,4.349s9.59-1.857,9.825-4.349l0.047-0.541
	C234.872,86.357,235.248,85.863,235.742,85.675C235.813,85.675,235.813,85.675,235.742,85.675z M241.853,71.055
	c-0.94,6.205-0.94,11.095-7.78,13.093l-0.235,2.398c-0.071,1.222-3.15,3.032-8.368,3.032c-0.165,0-0.259,0-0.4,0
	c-0.094,0-0.259,0-0.4,0c-5.242,0-8.227-1.81-8.368-3.032l-0.235-2.398c-6.981-1.998-6.981-6.887-7.921-13.093
	c-0.682-4.584-0.165-8.979,2.045-12.411c2.492-3.808,7.099-6.347,14.526-6.347c0.118,0,0.165,0,0.306,0c0.071,0,0.165,0,0.306,0
	c7.428,0,12.035,2.539,14.526,6.347C242.065,62.099,242.606,66.541,241.853,71.055z M222.461,74.909v-3.126
	c0-1.316-1.081-2.351-2.351-2.351h-2.304c-2.351,0-4.302,1.951-4.302,4.302v2.304c0,1.316,1.081,2.351,2.351,2.351h3.079
	c1.904,0,3.479-1.528,3.479-3.479H222.461z M227.492,81.82l-1.457-3.314c-0.376-0.87-1.786-0.87-2.139,0l-1.457,3.314
	c-0.329,0.729,0.306,1.457,1.081,1.457h2.938C227.304,83.277,227.844,82.525,227.492,81.82z M236.588,76.085v-2.304
	c0-2.351-1.951-4.302-4.302-4.302h-2.304c-1.316,0-2.351,1.081-2.351,2.351v3.126c0,1.904,1.528,3.479,3.479,3.479h3.079
	c1.316,0,2.351-1.081,2.351-2.351H236.588z M244.745,52.438c-1.316-1.34-1.128-3.62,0.541-4.654c0.917-0.588,2.163-0.588,3.079,0
	c1.669,1.034,1.857,3.338,0.541,4.654c1.34-1.316,3.62-1.128,4.654,0.541c0.588,0.917,0.588,2.163,0,3.079
	c-1.034,1.669-3.338,1.857-4.654,0.541l-4.584,4.584c-0.494-1.434-1.081-2.844-1.951-4.113c-0.306-0.494-0.682-0.917-1.034-1.41
	L244.745,52.438z M253.066,94.396c1.128,1.128,1.128,3.079,0,4.207c-1.128,1.128-3.079,1.128-4.207,0
	c1.128,1.128,1.128,3.079,0,4.207c-1.128,1.128-3.079,1.128-4.208,0c-1.128-1.128-1.128-3.079,0-4.207l-4.701-4.701
	c0.306-0.682,0.494-1.269,0.541-1.951l0.306-4.584c0.094-0.4,0-0.776-0.047-1.128l8.156,8.086
	C250.033,93.15,251.89,93.15,253.066,94.396z M205.255,52.462c1.316-1.34,1.128-3.62-0.541-4.654c-0.917-0.588-2.163-0.588-3.079,0
	c-1.669,1.034-1.857,3.338-0.541,4.654c-1.34-1.316-3.62-1.128-4.654,0.541c-0.588,0.917-0.588,2.163,0,3.079
	c1.034,1.669,3.338,1.857,4.654,0.541l4.584,4.56c0.494-1.434,1.081-2.844,1.951-4.113c0.306-0.494,0.682-0.917,1.034-1.41
	L205.255,52.462z M196.934,94.349c-1.128,1.128-1.128,3.079,0,4.207s3.079,1.128,4.208,0c-1.128,1.128-1.128,3.079,0,4.207
	s3.079,1.128,4.207,0c1.128-1.128,1.128-3.079,0-4.207l4.701-4.701c-0.306-0.682-0.494-1.269-0.541-1.951l-0.306-4.584
	c-0.094-0.4,0-0.776,0.047-1.128l-8.156,8.133C199.967,93.15,198.11,93.15,196.934,94.349z"/>
<path id="_x31__1_" d="M65.743,70.401c-0.951,4.755-3.091,9.153-6.716,13.908c-3.091,4.042-6.716,7.667-11.114,11.114
	c-2.496,1.902-5.052,3.744-7.548,5.527l-0.773,0.594c-1.367,0.892-3.982,2.437-5.111,3.15c-0.059,0.059-0.238,0.059-0.357,0.119
	c-0.119-0.059-0.297-0.059-0.357-0.119c-1.189-0.654-3.804-2.199-5.111-3.15l-0.773-0.594c-2.496-1.783-5.111-3.566-7.548-5.527
	c-4.398-3.447-8.083-7.073-11.114-11.114c-3.626-4.755-5.765-9.212-6.716-13.908c-0.951-4.339-0.535-8.44,1.07-12.184
	c1.367-3.091,3.507-5.765,6.3-7.727c2.496-1.842,5.349-2.912,8.44-3.328c2.556-0.357,5.111-0.119,7.845,0.654
	c3.507,0.951,6.122,2.793,8.024,5.409c1.902-2.615,4.636-4.398,8.024-5.409c2.734-0.773,5.349-1.01,7.845-0.654
	c3.091,0.416,5.943,1.545,8.44,3.328c2.853,1.961,4.933,4.576,6.3,7.727C66.337,61.961,66.812,66.062,65.743,70.401z M60.691,60
	c-1.01-2.496-2.615-4.458-4.755-5.943c-2.021-1.486-4.101-2.259-6.538-2.615c-1.961-0.297-3.923-0.178-6.003,0.475
	c-2.556,0.713-4.458,2.021-5.825,3.982c-0.357,0.416-0.654,0.892-1.01,1.486c-0.119,0.297-0.238,0.594-0.475,0.892l-1.902,2.972
	l-1.902-2.972c-0.119-0.297-0.357-0.594-0.475-0.892c-0.357-0.475-0.654-1.01-1.01-1.486c-1.367-1.902-3.209-3.209-5.825-3.982
	c-2.08-0.535-4.042-0.773-6.003-0.475c-2.437,0.357-4.576,1.248-6.538,2.615C10.29,55.602,8.745,57.563,7.675,60
	c-1.308,2.912-1.605,6.062-0.892,9.569c0.297,1.545,0.773,3.15,1.426,4.636h10.579l0.654,1.724l5.468-14.443l7.667,20.208
	l5.527-14.502l2.675,7.073h4.933c0.535-1.07,1.605-1.783,2.912-1.783c1.842,0,3.269,1.486,3.269,3.269
	c0,1.842-1.486,3.269-3.269,3.269c-1.308,0-2.437-0.713-2.912-1.783H38.7l-0.654-1.783l-5.527,14.502l-7.667-20.208l-5.409,14.324
	l-2.675-6.954H9.636c0.892,1.426,1.902,2.912,3.031,4.517c2.853,3.804,6.241,7.192,10.342,10.342
	c2.437,1.902,4.993,3.685,7.429,5.409l0.773,0.594c0.654,0.475,1.902,1.248,2.972,1.902c1.07-0.654,2.318-1.426,2.972-1.902
	l0.773-0.594c2.496-1.724,5.052-3.507,7.429-5.409c4.16-3.269,7.548-6.597,10.342-10.342c3.269-4.22,5.171-8.083,5.943-12.125
	C62.414,66.062,62.117,62.853,60.691,60z"/>
<g id="shopping_cart">
</g>
<g id="cross">
</g>
<g id="leaf">
</g>
</svg>