<?xml version="1.0" encoding="utf-8"?>
<!-- Uploaded to: SVG Repo, www.svgrepo.com, Generator: SVG Repo Mixer Tools -->
<svg fill="#000000" version="1.1" id="Layer_1" xmlns="http://www.w3.org/2000/svg" xmlns:xlink="http://www.w3.org/1999/xlink" 
	 width="800px" height="800px" viewBox="0 0 256 245" enable-background="new 0 0 256 245" xml:space="preserve">
<path d="M192.498,113.8c9.278,0,16.8,7.522,16.8,16.8s-7.522,16.8-16.8,16.8s-16.8-7.522-16.8-16.8S183.22,113.8,192.498,113.8z
	 M171.798,155.6c9.278,0,16.8,7.522,16.8,16.8s-7.522,16.8-16.8,16.8s-16.8-7.522-16.8-16.8S162.52,155.6,171.798,155.6z
	 M144.998,192.3h-18.9h-18.9c-11.5,0-18.7,9.5-18.7,21.4V243h12.9v-25.9c0-1.2,1-2,2-2c1.2,0,2,0.8,2,2v25.8h41.5v-25.8
	c0-1.2,1-2,2-2c1.2,0,2,1,2,2v25.8h12.9v-29.1C163.998,201.8,156.698,192.3,144.998,192.3z M149.698,113.8
	c9.278,0,16.8,7.522,16.8,16.8s-7.522,16.8-16.8,16.8s-16.8-7.522-16.8-16.8S140.42,113.8,149.698,113.8z M199.098,172.4
	c0,9.3,7.5,16.8,16.8,16.8s16.8-7.5,16.8-16.8s-7.5-16.8-16.8-16.8S199.098,163.1,199.098,172.4z M197.398,192.3
	c-11.5,0-18.7,9.5-18.7,21.4V243h12.9v-25.9c0-1.2,1-2,2-2c1.2,0,2,0.8,2,2v25.8h41.5v-25.8c0-1.2,1-2,2-2c1.2,0,2,1,2,2v25.8h12.9
	v-29.1c0.2-12.1-7.1-21.6-18.7-21.6h-18.9h-19V192.3z M39.798,155.6c9.278,0,16.8,7.522,16.8,16.8s-7.522,16.8-16.8,16.8
	s-16.8-7.522-16.8-16.8S30.52,155.6,39.798,155.6z M14.798,242.9v-25.8c0-1.2,1-2,2-2c1.2,0,2,0.8,2,2v25.8h41.5v-25.8
	c0-1.2,1-2,2-2c1.2,0,2,1,2,2v25.8h12.9v-29.1c0.2-12.1-7.1-21.6-18.7-21.6h-18.9h-18.9c-11.5,0-18.7,9.5-18.7,21.4v29.3
	L14.798,242.9L14.798,242.9z M109.298,172.4c0,9.3,7.5,16.8,16.8,16.8c9.3,0,16.8-7.5,16.8-16.8s-7.5-16.8-16.8-16.8
	S109.298,163.1,109.298,172.4z M61.298,113.8c9.278,0,16.8,7.522,16.8,16.8s-7.522,16.8-16.8,16.8s-16.8-7.522-16.8-16.8
	S52.02,113.8,61.298,113.8z M106.698,113.8c9.278,0,16.8,7.522,16.8,16.8s-7.522,16.8-16.8,16.8s-16.8-7.522-16.8-16.8
	S97.42,113.8,106.698,113.8z M84.098,155.6c9.278,0,16.8,7.522,16.8,16.8s-7.522,16.8-16.8,16.8s-16.8-7.522-16.8-16.8
	S74.82,155.6,84.098,155.6z M177.893,58.428l-14.217-47.332h-32.453V5.223c0-1.59-1.59-3.223-3.223-3.223
	c-1.59,0-3.223,1.59-3.223,3.223v5.917H92.324L78.107,58.428h-0.309h-1.59c0,10.729,8.698,19.472,19.472,19.472
	s19.472-8.698,19.472-19.472h-1.854h-0.309L99.565,14.054h25.476V83.11H99.83V93h3.223H128h24.947h3.223v-9.89h-25.212V14.054
	h25.476l-13.423,44.374h-0.309h-1.854c0,10.729,8.698,19.472,19.472,19.472s19.472-8.698,19.472-19.472h-1.59L177.893,58.428
	L177.893,58.428z M108.573,58.428H82.787l12.76-43.049L108.573,58.428z M147.427,58.428l13.025-43.049l12.76,43.049H147.427z"/>
</svg>